<mxfile host="app.diagrams.net" modified="2021-08-20T02:33:50.819Z" agent="5.0 (Windows NT 10.0; Win64; x64) AppleWebKit/537.36 (KHTML, like Gecko) Chrome/92.0.4515.131 Safari/537.36 Edg/92.0.902.73" etag="3vbrfdR8_5ZGmdztZ8dK" version="14.9.5" type="github">
  <diagram id="ofUUVFn5tLOiKQuakarS" name="Page-1">
    <mxGraphModel dx="1321" dy="265" grid="1" gridSize="10" guides="1" tooltips="1" connect="1" arrows="1" fold="1" page="1" pageScale="1" pageWidth="827" pageHeight="1169" math="0" shadow="0">
      <root>
        <mxCell id="0" />
        <mxCell id="1" parent="0" />
        <mxCell id="7gOXyf1R_mcmTL4wc7NC-3" value="" style="ellipse;whiteSpace=wrap;html=1;dashed=1;" parent="1" vertex="1">
          <mxGeometry x="54" y="230" width="240" height="110" as="geometry" />
        </mxCell>
        <mxCell id="7gOXyf1R_mcmTL4wc7NC-4" value="&lt;font style=&quot;font-size: 15px&quot;&gt;&lt;font color=&quot;#000000&quot; face=&quot;helvetica&quot; style=&quot;font-size: 15px&quot;&gt;ERP - ArqueSys&lt;/font&gt;&lt;/font&gt;" style="rounded=0;whiteSpace=wrap;html=1;fillColor=#f5f5f5;strokeColor=#666666;fontColor=#333333;" parent="1" vertex="1">
          <mxGeometry x="106" y="265" width="148" height="40" as="geometry" />
        </mxCell>
        <mxCell id="7gOXyf1R_mcmTL4wc7NC-6" value="&lt;span id=&quot;docs-internal-guid-01f24d8b-7fff-2e91-310c-5bba79cc8ed7&quot;&gt;&lt;span style=&quot;font-family: &amp;#34;arial&amp;#34; ; background-color: transparent ; vertical-align: baseline&quot;&gt;&lt;span id=&quot;docs-internal-guid-97d206a0-7fff-72b2-f705-602895639316&quot;&gt;&lt;div dir=&quot;ltr&quot; style=&quot;margin-left: 0pt&quot; align=&quot;left&quot;&gt;&lt;table style=&quot;background-color: transparent ; border: none ; border-collapse: collapse&quot;&gt;&lt;colgroup&gt;&lt;col width=&quot;187&quot;&gt;&lt;col width=&quot;453&quot;&gt;&lt;/colgroup&gt;&lt;tbody&gt;&lt;tr style=&quot;height: 0pt&quot;&gt;&lt;td style=&quot;border-left: solid #ff9900 1pt ; border-right: solid #ff9900 1pt ; border-bottom: solid #ff9900 1pt ; border-top: solid #ff9900 1pt ; vertical-align: top ; padding: 5pt 5pt 5pt 5pt ; overflow: hidden ; overflow-wrap: break-word&quot;&gt;&lt;span style=&quot;text-align: justify&quot;&gt;Sócio Operacional&lt;/span&gt;&lt;/td&gt;&lt;/tr&gt;&lt;/tbody&gt;&lt;/table&gt;&lt;/div&gt;&lt;/span&gt;&lt;/span&gt;&lt;/span&gt;" style="shape=umlActor;verticalLabelPosition=bottom;verticalAlign=top;html=1;outlineConnect=0;strokeColor=#d79b00;fillColor=none;" parent="1" vertex="1">
          <mxGeometry y="395" width="30" height="60" as="geometry" />
        </mxCell>
        <mxCell id="7gOXyf1R_mcmTL4wc7NC-22" value="&lt;span style=&quot;color: rgb(34 , 34 , 34) ; font-family: &amp;#34;google sans&amp;#34; , &amp;#34;arial&amp;#34; , sans-serif ; text-align: left ; background-color: rgb(255 , 255 , 255)&quot;&gt;&lt;font&gt;&lt;font style=&quot;font-size: 13px&quot;&gt;Gestão de relacionamentos e recursos Manual&lt;/font&gt;&lt;br&gt;&lt;/font&gt;&lt;/span&gt;" style="rounded=0;whiteSpace=wrap;html=1;fillColor=#f5f5f5;strokeColor=#666666;fontColor=#333333;" parent="1" vertex="1">
          <mxGeometry x="125" y="439" width="110" height="46" as="geometry" />
        </mxCell>
        <mxCell id="IGN8ruvCPKyGlNlwhIGV-1" value="Fronteira Sistêmica" style="shape=callout;whiteSpace=wrap;html=1;perimeter=calloutPerimeter;position2=0.29;dashed=1;size=35;position=0.58;base=20;" parent="1" vertex="1">
          <mxGeometry x="260" y="202.5" width="120" height="65" as="geometry" />
        </mxCell>
        <mxCell id="4lb6yPEp9kyUfiVUmwPT-1" value="&lt;span id=&quot;docs-internal-guid-01f24d8b-7fff-2e91-310c-5bba79cc8ed7&quot;&gt;&lt;span style=&quot;font-family: &amp;#34;arial&amp;#34; ; background-color: transparent ; vertical-align: baseline&quot;&gt;&lt;div dir=&quot;ltr&quot; style=&quot;margin-left: 0pt&quot; align=&quot;left&quot;&gt;&lt;table style=&quot;border: none ; border-collapse: collapse&quot;&gt;&lt;colgroup&gt;&lt;col width=&quot;187&quot;&gt;&lt;col width=&quot;453&quot;&gt;&lt;/colgroup&gt;&lt;tbody&gt;&lt;tr style=&quot;height: 0pt&quot;&gt;&lt;td style=&quot;border-left: solid #ff9900 1pt ; border-right: solid #ff9900 1pt ; border-bottom: solid #ff9900 1pt ; border-top: solid #ff9900 1pt ; vertical-align: top ; padding: 5pt 5pt 5pt 5pt ; overflow: hidden ; overflow-wrap: break-word&quot;&gt;&lt;span id=&quot;docs-internal-guid-cf75bcc0-7fff-0399-cd37-272892f8aaf6&quot;&gt;&lt;div dir=&quot;ltr&quot; style=&quot;margin-left: 0pt&quot; align=&quot;left&quot;&gt;&lt;span style=&quot;text-align: justify&quot;&gt;Sócio&amp;nbsp;&lt;/span&gt;&lt;span style=&quot;text-align: justify ; background-color: transparent&quot;&gt;Comercial&lt;/span&gt;&lt;/div&gt;&lt;/span&gt;&lt;/td&gt;&lt;/tr&gt;&lt;/tbody&gt;&lt;/table&gt;&lt;/div&gt;&lt;/span&gt;&lt;/span&gt;" style="shape=umlActor;verticalLabelPosition=bottom;verticalAlign=top;html=1;outlineConnect=0;direction=east;strokeColor=#d79b00;fillColor=none;" parent="1" vertex="1">
          <mxGeometry x="330" y="395" width="30" height="60" as="geometry" />
        </mxCell>
        <mxCell id="aku06pGNUJt8TLLcKpjH-1" value="" style="ellipse;whiteSpace=wrap;html=1;align=center;dashed=1;" parent="1" vertex="1">
          <mxGeometry x="732.5" y="190" width="160" height="90" as="geometry" />
        </mxCell>
        <mxCell id="aku06pGNUJt8TLLcKpjH-2" value="ERP - ArqueSys" style="rounded=0;whiteSpace=wrap;html=1;fillColor=#f5f5f5;strokeColor=#666666;fontColor=#333333;" parent="1" vertex="1">
          <mxGeometry x="752.5" y="215" width="120" height="40" as="geometry" />
        </mxCell>
        <mxCell id="aku06pGNUJt8TLLcKpjH-3" style="edgeStyle=orthogonalEdgeStyle;rounded=0;orthogonalLoop=1;jettySize=auto;html=1;entryX=0.003;entryY=0.631;entryDx=0;entryDy=0;entryPerimeter=0;exitX=0.5;exitY=0;exitDx=0;exitDy=0;exitPerimeter=0;startArrow=classic;startFill=1;" parent="1" source="aku06pGNUJt8TLLcKpjH-4" target="aku06pGNUJt8TLLcKpjH-1" edge="1">
          <mxGeometry relative="1" as="geometry" />
        </mxCell>
        <mxCell id="aku06pGNUJt8TLLcKpjH-4" value="Actor" style="shape=umlActor;verticalLabelPosition=bottom;verticalAlign=top;html=1;outlineConnect=0;fillColor=#fff2cc;strokeColor=#d6b656;" parent="1" vertex="1">
          <mxGeometry x="677.5" y="325" width="30" height="60" as="geometry" />
        </mxCell>
        <mxCell id="aku06pGNUJt8TLLcKpjH-5" style="edgeStyle=orthogonalEdgeStyle;rounded=0;orthogonalLoop=1;jettySize=auto;html=1;entryX=0.253;entryY=0.96;entryDx=0;entryDy=0;entryPerimeter=0;startArrow=classic;startFill=1;" parent="1" source="aku06pGNUJt8TLLcKpjH-6" target="aku06pGNUJt8TLLcKpjH-1" edge="1">
          <mxGeometry relative="1" as="geometry" />
        </mxCell>
        <mxCell id="aku06pGNUJt8TLLcKpjH-6" value="Actor" style="shape=umlActor;verticalLabelPosition=bottom;verticalAlign=top;html=1;outlineConnect=0;fillColor=#fff2cc;strokeColor=#d6b656;" parent="1" vertex="1">
          <mxGeometry x="757.5" y="325" width="30" height="60" as="geometry" />
        </mxCell>
        <mxCell id="aku06pGNUJt8TLLcKpjH-7" style="edgeStyle=orthogonalEdgeStyle;rounded=0;orthogonalLoop=1;jettySize=auto;html=1;entryX=0.75;entryY=0.944;entryDx=0;entryDy=0;entryPerimeter=0;startArrow=classic;startFill=1;" parent="1" source="aku06pGNUJt8TLLcKpjH-8" target="aku06pGNUJt8TLLcKpjH-1" edge="1">
          <mxGeometry relative="1" as="geometry" />
        </mxCell>
        <mxCell id="aku06pGNUJt8TLLcKpjH-8" value="Actor" style="shape=umlActor;verticalLabelPosition=bottom;verticalAlign=top;html=1;outlineConnect=0;fillColor=#fff2cc;strokeColor=#d6b656;" parent="1" vertex="1">
          <mxGeometry x="837.5" y="325" width="30" height="60" as="geometry" />
        </mxCell>
        <mxCell id="aku06pGNUJt8TLLcKpjH-9" style="rounded=0;orthogonalLoop=1;jettySize=auto;html=1;entryX=1;entryY=0.5;entryDx=0;entryDy=0;exitX=0.5;exitY=0;exitDx=0;exitDy=0;exitPerimeter=0;edgeStyle=orthogonalEdgeStyle;" parent="1" source="aku06pGNUJt8TLLcKpjH-10" target="aku06pGNUJt8TLLcKpjH-1" edge="1">
          <mxGeometry relative="1" as="geometry" />
        </mxCell>
        <mxCell id="aku06pGNUJt8TLLcKpjH-10" value="Actor" style="shape=umlActor;verticalLabelPosition=bottom;verticalAlign=top;html=1;outlineConnect=0;fillColor=#fff2cc;strokeColor=#d6b656;" parent="1" vertex="1">
          <mxGeometry x="917.5" y="325" width="30" height="60" as="geometry" />
        </mxCell>
        <mxCell id="aku06pGNUJt8TLLcKpjH-11" value="Gerente Comercial" style="rounded=0;whiteSpace=wrap;html=1;fillColor=#fff2cc;strokeColor=#d6b656;" parent="1" vertex="1">
          <mxGeometry x="660" y="394" width="62.5" height="40" as="geometry" />
        </mxCell>
        <mxCell id="aku06pGNUJt8TLLcKpjH-12" value="Gerente Operacional" style="rounded=0;whiteSpace=wrap;html=1;fillColor=#fff2cc;strokeColor=#d6b656;" parent="1" vertex="1">
          <mxGeometry x="736.88" y="394" width="71.25" height="40" as="geometry" />
        </mxCell>
        <mxCell id="aku06pGNUJt8TLLcKpjH-13" value="Financeiro" style="rounded=0;whiteSpace=wrap;html=1;fillColor=#fff2cc;strokeColor=#d6b656;" parent="1" vertex="1">
          <mxGeometry x="821.25" y="394" width="62.5" height="40" as="geometry" />
        </mxCell>
        <mxCell id="aku06pGNUJt8TLLcKpjH-14" value="Operação" style="rounded=0;whiteSpace=wrap;html=1;fillColor=#fff2cc;strokeColor=#d6b656;" parent="1" vertex="1">
          <mxGeometry x="901.25" y="394" width="62.5" height="40" as="geometry" />
        </mxCell>
        <mxCell id="aku06pGNUJt8TLLcKpjH-15" style="edgeStyle=orthogonalEdgeStyle;rounded=0;orthogonalLoop=1;jettySize=auto;html=1;entryX=0.5;entryY=1;entryDx=0;entryDy=0;startArrow=classic;startFill=1;" parent="1" source="aku06pGNUJt8TLLcKpjH-19" target="aku06pGNUJt8TLLcKpjH-11" edge="1">
          <mxGeometry relative="1" as="geometry" />
        </mxCell>
        <mxCell id="aku06pGNUJt8TLLcKpjH-16" style="edgeStyle=orthogonalEdgeStyle;rounded=0;orthogonalLoop=1;jettySize=auto;html=1;entryX=0.618;entryY=1.02;entryDx=0;entryDy=0;entryPerimeter=0;startArrow=classic;startFill=1;" parent="1" source="aku06pGNUJt8TLLcKpjH-19" target="aku06pGNUJt8TLLcKpjH-12" edge="1">
          <mxGeometry relative="1" as="geometry">
            <Array as="points">
              <mxPoint x="780.5" y="475" />
              <mxPoint x="780.5" y="475" />
            </Array>
          </mxGeometry>
        </mxCell>
        <mxCell id="aku06pGNUJt8TLLcKpjH-17" style="edgeStyle=orthogonalEdgeStyle;rounded=0;orthogonalLoop=1;jettySize=auto;html=1;startArrow=classic;startFill=1;" parent="1" source="aku06pGNUJt8TLLcKpjH-19" edge="1">
          <mxGeometry relative="1" as="geometry">
            <mxPoint x="852.5" y="435" as="targetPoint" />
            <Array as="points">
              <mxPoint x="852.5" y="465" />
              <mxPoint x="852.5" y="465" />
            </Array>
          </mxGeometry>
        </mxCell>
        <mxCell id="aku06pGNUJt8TLLcKpjH-18" style="edgeStyle=orthogonalEdgeStyle;rounded=0;orthogonalLoop=1;jettySize=auto;html=1;startArrow=classic;startFill=1;endArrow=none;endFill=0;" parent="1" source="aku06pGNUJt8TLLcKpjH-19" edge="1">
          <mxGeometry relative="1" as="geometry">
            <mxPoint x="932.5" y="435" as="targetPoint" />
          </mxGeometry>
        </mxCell>
        <mxCell id="aku06pGNUJt8TLLcKpjH-19" value="Gestão de relacionamento e recursos manuais" style="rounded=0;whiteSpace=wrap;html=1;fillColor=#f5f5f5;strokeColor=#666666;fontColor=#333333;" parent="1" vertex="1">
          <mxGeometry x="752.5" y="485" width="120" height="50" as="geometry" />
        </mxCell>
        <mxCell id="aku06pGNUJt8TLLcKpjH-57" value="" style="endArrow=classic;startArrow=classic;html=1;endSize=3;startSize=3;" parent="1" edge="1">
          <mxGeometry width="50" height="50" relative="1" as="geometry">
            <mxPoint x="254" y="364" as="sourcePoint" />
            <mxPoint x="214" y="324" as="targetPoint" />
          </mxGeometry>
        </mxCell>
        <mxCell id="aku06pGNUJt8TLLcKpjH-58" value="" style="endArrow=classic;startArrow=classic;html=1;endSize=3;startSize=3;" parent="1" edge="1">
          <mxGeometry width="50" height="50" relative="1" as="geometry">
            <mxPoint x="340" y="390" as="sourcePoint" />
            <mxPoint x="260" y="310" as="targetPoint" />
          </mxGeometry>
        </mxCell>
        <mxCell id="aku06pGNUJt8TLLcKpjH-63" value="" style="endArrow=classic;startArrow=classic;html=1;endSize=3;startSize=3;exitX=1;exitY=0.75;exitDx=0;exitDy=0;" parent="1" edge="1" source="7gOXyf1R_mcmTL4wc7NC-22">
          <mxGeometry width="50" height="50" relative="1" as="geometry">
            <mxPoint x="240" y="480" as="sourcePoint" />
            <mxPoint x="273" y="462" as="targetPoint" />
            <Array as="points">
              <mxPoint x="273" y="474" />
            </Array>
          </mxGeometry>
        </mxCell>
        <mxCell id="aku06pGNUJt8TLLcKpjH-64" value="" style="endArrow=classic;startArrow=classic;html=1;endSize=3;startSize=3;" parent="1" edge="1">
          <mxGeometry width="50" height="50" relative="1" as="geometry">
            <mxPoint x="20" y="390" as="sourcePoint" />
            <mxPoint x="100" y="310" as="targetPoint" />
          </mxGeometry>
        </mxCell>
        <mxCell id="aku06pGNUJt8TLLcKpjH-66" value="" style="endArrow=classic;startArrow=classic;html=1;endSize=3;startSize=3;entryX=0.25;entryY=1;entryDx=0;entryDy=0;" parent="1" edge="1" target="7gOXyf1R_mcmTL4wc7NC-22">
          <mxGeometry width="50" height="50" relative="1" as="geometry">
            <mxPoint x="20" y="490" as="sourcePoint" />
            <mxPoint x="150" y="490" as="targetPoint" />
            <Array as="points">
              <mxPoint x="20" y="510" />
              <mxPoint x="90" y="510" />
              <mxPoint x="153" y="510" />
            </Array>
          </mxGeometry>
        </mxCell>
        <mxCell id="aku06pGNUJt8TLLcKpjH-68" value="" style="endArrow=classic;startArrow=classic;html=1;endSize=3;startSize=3;exitX=0.75;exitY=1;exitDx=0;exitDy=0;" parent="1" edge="1" source="7gOXyf1R_mcmTL4wc7NC-22">
          <mxGeometry width="50" height="50" relative="1" as="geometry">
            <mxPoint x="210.56999999999994" y="485.874" as="sourcePoint" />
            <mxPoint x="340" y="490" as="targetPoint" />
            <Array as="points">
              <mxPoint x="208" y="510" />
              <mxPoint x="260" y="510" />
              <mxPoint x="300" y="510" />
              <mxPoint x="340" y="510" />
            </Array>
          </mxGeometry>
        </mxCell>
        <mxCell id="-3f9OGaL1PKOyqWtIVvq-1" value="&lt;span id=&quot;docs-internal-guid-01f24d8b-7fff-2e91-310c-5bba79cc8ed7&quot;&gt;&lt;span style=&quot;font-family: &amp;#34;arial&amp;#34; ; background-color: transparent ; vertical-align: baseline&quot;&gt;&lt;div dir=&quot;ltr&quot; style=&quot;margin-left: 0pt&quot; align=&quot;left&quot;&gt;&lt;table style=&quot;border: none ; border-collapse: collapse&quot;&gt;&lt;colgroup&gt;&lt;col width=&quot;187&quot;&gt;&lt;col width=&quot;453&quot;&gt;&lt;/colgroup&gt;&lt;tbody&gt;&lt;tr style=&quot;height: 0pt&quot;&gt;&lt;td style=&quot;border-left: solid #ff9900 1pt ; border-right: solid #ff9900 1pt ; border-bottom: solid #ff9900 1pt ; border-top: solid #ff9900 1pt ; vertical-align: top ; padding: 5pt 5pt 5pt 5pt ; overflow: hidden ; overflow-wrap: break-word&quot;&gt;&lt;span id=&quot;docs-internal-guid-cf75bcc0-7fff-0399-cd37-272892f8aaf6&quot;&gt;&lt;div dir=&quot;ltr&quot; style=&quot;text-align: justify ; margin-left: 0pt&quot; align=&quot;left&quot;&gt;Secretária&lt;/div&gt;&lt;/span&gt;&lt;/td&gt;&lt;/tr&gt;&lt;/tbody&gt;&lt;/table&gt;&lt;/div&gt;&lt;/span&gt;&lt;/span&gt;" style="shape=umlActor;verticalLabelPosition=bottom;verticalAlign=top;html=1;outlineConnect=0;direction=east;strokeColor=#d79b00;fillColor=none;" vertex="1" parent="1">
          <mxGeometry x="260" y="364" width="30" height="60" as="geometry" />
        </mxCell>
        <mxCell id="-3f9OGaL1PKOyqWtIVvq-2" value="&lt;span id=&quot;docs-internal-guid-01f24d8b-7fff-2e91-310c-5bba79cc8ed7&quot;&gt;&lt;span style=&quot;font-family: &amp;#34;arial&amp;#34; ; background-color: transparent ; vertical-align: baseline&quot;&gt;&lt;div dir=&quot;ltr&quot; style=&quot;margin-left: 0pt&quot; align=&quot;left&quot;&gt;&lt;table style=&quot;border: none ; border-collapse: collapse&quot;&gt;&lt;colgroup&gt;&lt;col width=&quot;187&quot;&gt;&lt;col width=&quot;453&quot;&gt;&lt;/colgroup&gt;&lt;tbody&gt;&lt;tr style=&quot;height: 0pt&quot;&gt;&lt;td style=&quot;border-left: solid #ff9900 1pt ; border-right: solid #ff9900 1pt ; border-bottom: solid #ff9900 1pt ; border-top: solid #ff9900 1pt ; vertical-align: top ; padding: 5pt 5pt 5pt 5pt ; overflow: hidden ; overflow-wrap: break-word&quot;&gt;&lt;span id=&quot;docs-internal-guid-cf75bcc0-7fff-0399-cd37-272892f8aaf6&quot;&gt;&lt;div dir=&quot;ltr&quot; style=&quot;text-align: justify ; margin-left: 0pt&quot; align=&quot;left&quot;&gt;Protético&lt;/div&gt;&lt;/span&gt;&lt;/td&gt;&lt;/tr&gt;&lt;/tbody&gt;&lt;/table&gt;&lt;/div&gt;&lt;/span&gt;&lt;/span&gt;" style="shape=umlActor;verticalLabelPosition=bottom;verticalAlign=top;html=1;outlineConnect=0;direction=east;strokeColor=#d79b00;fillColor=none;" vertex="1" parent="1">
          <mxGeometry x="70" y="364" width="30" height="60" as="geometry" />
        </mxCell>
        <mxCell id="-3f9OGaL1PKOyqWtIVvq-5" value="" style="endArrow=classic;startArrow=classic;html=1;endSize=3;startSize=3;entryX=0;entryY=0.75;entryDx=0;entryDy=0;" edge="1" parent="1" target="7gOXyf1R_mcmTL4wc7NC-22">
          <mxGeometry width="50" height="50" relative="1" as="geometry">
            <mxPoint x="85" y="460" as="sourcePoint" />
            <mxPoint x="125" y="470" as="targetPoint" />
            <Array as="points">
              <mxPoint x="85" y="474" />
            </Array>
          </mxGeometry>
        </mxCell>
      </root>
    </mxGraphModel>
  </diagram>
</mxfile>
